<svg width="612" height="407" viewBox="0 0 612 407" fill="none" xmlns="http://www.w3.org/2000/svg">
<path d="M148.253 248.218C159.46 240.436 201.156 226.418 220.604 220.381H242.447C255.411 223.595 284.535 231.319 297.326 236.505C310.117 241.69 333.436 272.395 342.799 286.655L332.611 306.162C306.684 331.744 327.574 354.329 341.402 362.683C320.661 362.683 311.73 354.905 309.858 351.016C311.932 362.77 313.603 391.635 314.179 404.599H161.641V381.038H103.462C98.1005 322.376 134.244 257.946 148.253 248.218Z" fill="url(#paint0_linear_1_518)"/>
<ellipse cx="233.172" cy="238.89" rx="25.9725" ry="18.5082" fill="#CF0606"/>
<path d="M213.89 236.978C217.262 217.594 216.074 199.657 215.547 193.468C216.284 187.674 246.944 198.526 261.692 204.32C253.37 208.534 251.114 229.604 251.026 239.612C251.289 242.904 249.235 249.884 238.911 251.464C221.634 253.466 215.032 242.641 213.89 236.978Z" fill="url(#paint1_linear_1_518)"/>
<mask id="mask0_1_518" style="mask-type:alpha" maskUnits="userSpaceOnUse" x="213" y="191" width="49" height="61">
<path d="M213.89 236.978C217.262 217.594 216.074 199.657 215.547 193.468C216.284 187.674 246.944 198.526 261.692 204.32C253.37 208.534 251.114 229.604 251.026 239.612C251.289 242.904 249.235 249.884 238.911 251.464C221.634 253.466 215.032 242.641 213.89 236.978Z" fill="#BABABA"/>
</mask>
<g mask="url(#mask0_1_518)">
<path opacity="0.1" d="M256.589 224.431C235.826 221.191 220.433 202.937 215.331 194.215C227.182 191.77 253.828 188.348 265.608 194.215C277.389 200.082 264.504 216.804 256.589 224.431Z" fill="black"/>
</g>
<path d="M250.264 207.87C284.366 206.387 285.34 159.75 281.565 136.618C219.951 84.3936 195.211 125.429 190.544 152.474C196.241 171.557 216.161 209.352 250.264 207.87Z" fill="url(#paint2_linear_1_518)"/>
<path d="M206.245 90.0037C196.434 86.9111 175.98 85.3648 172.653 103.92C172.653 115.917 201.606 112.878 206.245 90.0037Z" fill="#30235B"/>
<path d="M218.058 151.627L231.953 163.561L230.445 170.521L217.485 159.147L218.058 151.627Z" fill="#111111"/>
<path d="M203.929 162.359C215.791 172.408 216.56 188.1 215.461 194.69C211.617 193.66 200.881 186.988 188.69 168.537C169.25 128.833 192.671 99.1381 206.812 89.2535C244.703 67.2189 295.362 101.403 286.507 127.557C277.652 153.71 235.299 147.669 219.58 137.647C222.874 147.532 219.854 157.279 217.932 160.917C210.519 143.619 189.102 149.797 203.929 162.359Z" fill="#30235B"/>
<path d="M229.321 84.1507C254.553 76.9033 269.92 89.9666 274.45 97.4042C269.361 94.664 255.258 90.8278 239.555 97.4042C214.726 108.812 209.301 133.138 209.693 143.875L193.252 142.701V136.661C194.762 122.177 204.089 91.3982 229.321 84.1507Z" fill="white"/>
<ellipse cx="199.985" cy="158.596" rx="19.2976" ry="23.6088" fill="white"/>
<ellipse cx="199.985" cy="158.596" rx="19.2976" ry="23.6088" fill="white"/>
<ellipse cx="199.985" cy="158.596" rx="9.21133" ry="11.2692" fill="#24C28A"/>
<path opacity="0.5" d="M284.303 154.993C277.15 152.782 269.447 157.496 266.489 160.128C261.111 165.263 269.266 178.321 278.695 172.306C286.238 167.494 285.577 158.759 284.303 154.993Z" fill="#E6FCFF"/>
<path fill-rule="evenodd" clip-rule="evenodd" d="M263.458 158.578C273.804 149.021 283.615 150.655 287.228 152.667C289.318 158.202 287.228 174.378 275.69 175.812C266.459 176.959 263.296 169.822 262.868 166.111C261.114 164.694 259.948 165.915 259.585 166.703C259.888 177.018 251.596 183.996 242.696 182.378C235.577 181.084 232.478 173.969 231.818 170.574H230.346V164.538C239.617 155.461 252.425 157.686 257.67 159.933C259.049 158.849 262.104 158.578 263.458 158.578ZM283.76 155.641C276.607 153.43 270.072 157.218 267.114 159.851C261.736 164.986 268.8 177.566 278.669 172.306C284.579 169.156 285.033 159.407 283.76 155.641ZM243.315 162.372C247.22 161.101 255.185 160.251 255.795 167.018C256.558 175.476 248.861 181.717 242.136 178.389C237.266 175.979 235.272 171.039 235.272 167.919C235.272 165.423 240.634 163.181 243.315 162.372Z" fill="#111111"/>
<path opacity="0.5" d="M255.821 167.018C255.211 160.251 247.246 161.101 243.34 162.372C240.66 163.181 235.298 165.423 235.298 167.919C235.298 171.039 237.292 175.979 242.162 178.389C248.887 181.717 256.583 175.477 255.821 167.018Z" fill="#E6FCFF"/>
<path d="M103.413 381.114C109.412 407.85 145.039 407.904 162.102 404.59L293.628 385.587C295.323 387.06 299.384 390.942 302.061 394.694C304.738 398.445 307.192 395.808 308.084 394.02C311.939 398.197 314.777 396.209 315.714 394.694C319.034 398.873 321.827 397.414 322.809 396.162C327.413 399.589 328.576 396.611 328.581 394.694C322.299 381.391 311.029 368.058 306.18 363.054L273.385 366.057L166.83 355.193C146.614 341.01 95.9136 347.694 103.413 381.114Z" fill="url(#paint3_linear_1_518)"/>
<path d="M358.251 340.662C352.31 359.848 344.12 363.2 340.767 362.478C305.481 338.866 320.633 314.67 332.62 305.524L363.865 241.193C359.341 237.655 354.301 226.588 354.818 219.609C355.232 214.026 359.04 213.839 360.892 214.444C361.409 208.658 365.588 208.843 367.613 209.658C369.371 203.351 374.463 204.704 376.789 206.168C377.099 197.483 383.122 198.672 386.094 200.353L391.312 214.444C393.444 214.74 398.388 215.424 401.111 215.796C404.515 216.26 408.848 216.879 406.681 221.675C404.949 225.513 396.16 238.644 391.982 244.73C383.214 268.713 364.193 321.475 358.251 340.662Z" fill="url(#paint4_linear_1_518)"/>
<path d="M268.31 397.696H337.116C337.116 401.508 334.025 404.599 330.213 404.599H275.212C271.4 404.599 268.31 401.508 268.31 397.696Z" fill="#B4B4B4"/>
<path d="M359.053 312.747C359.534 311.593 360.662 310.842 361.912 310.842H478.112C480.322 310.842 481.821 313.09 480.971 315.13L444.466 402.693C443.985 403.847 442.858 404.598 441.608 404.598H325.407C323.197 404.598 321.698 402.35 322.549 400.31L359.053 312.747Z" fill="url(#paint5_linear_1_518)"/>
<path d="M166.87 355.161L169.956 330.872" stroke="#30235B" stroke-width="0.619401"/>
<path d="M309.764 351.16C309.301 348.309 308.514 341.418 309.069 336.663" stroke="#30235B" stroke-width="0.619401"/>
<path d="M308.925 341.98L306.271 336.601" stroke="#30235B" stroke-width="0.619401"/>
<path d="M307.986 393.798L299.368 382.92" stroke="#30235B" stroke-width="0.619401"/>
<path d="M315.614 394.336L302.164 376.881" stroke="#30235B" stroke-width="0.619401"/>
<path d="M322.685 395.935L305.967 371.847" stroke="#30235B" stroke-width="0.619401"/>
<path d="M360.888 214.548C361.349 216.944 362.851 222.607 365.177 226.095" stroke="#30235B" stroke-width="0.619401"/>
<path d="M376.818 206.219C377.522 208.691 379.356 214.266 381.056 216.791" stroke="#30235B" stroke-width="0.619401"/>
<path d="M367.52 209.811C368.349 212.502 370.409 218.418 372.012 220.554" stroke="#30235B" stroke-width="0.619401"/>
<path d="M391.246 214.435L393.81 221.937" stroke="#30235B" stroke-width="0.619401"/>
<ellipse cx="405.978" cy="359.952" rx="7.86131" ry="11.3813" transform="rotate(19.8998 405.978 359.952)" fill="white"/>
<rect x="609.137" y="284.533" width="126.405" height="10.3543" transform="rotate(117.371 609.137 284.533)" fill="#E0E0E0"/>
<rect x="519.833" y="388.975" width="58.4432" height="15.6235" rx="3.09701" fill="#30235B"/>
<rect x="602.449" y="285.548" width="67.8967" height="10.3543" transform="rotate(-139.766 602.449 285.548)" fill="#E0E0E0"/>
<rect x="551.719" y="237.182" width="20.0325" height="3.56661" transform="rotate(162.128 551.719 237.182)" fill="#E0E0E0"/>
<circle cx="604.767" cy="281.378" r="7.23339" fill="#30235B"/>
<path d="M547.196 231.956L557.329 233.837L550.633 241.672L547.196 231.956Z" fill="#30235B"/>
<path d="M515.634 228.579C517.968 222.716 524.613 219.855 530.476 222.189C536.339 224.523 539.2 231.168 536.866 237.031L530.412 253.244L509.18 244.791L515.634 228.579Z" fill="#30235B"/>
<path d="M522.366 245.12C498.802 235.868 483.125 256.594 477.59 267.571C493.951 290.897 523.921 293.293 537.503 292.118C542.276 280.307 545.93 254.372 522.366 245.12Z" fill="#30235B"/>
<path d="M45.9919 332.97C30.8299 342.25 26.0589 333.787 25.5686 328.395C25.5686 320.553 25.5686 314.018 15.2755 302.417C-9.55896 274.969 -1.7165 231.181 32.5943 228.404C66.9051 225.626 56.9386 247.357 44.8481 261.408C32.7816 275.431 40.4065 279.69 58.4651 289.777L58.5725 289.837C82.0999 304.051 62.4937 316.795 50.8934 319.082C39.2931 321.37 49.2595 328.395 45.9919 332.97Z" fill="url(#paint6_linear_1_518)"/>
<path d="M196.089 181.012C190.716 179.884 180.059 172.837 181.021 156.647" stroke="#30235B" stroke-width="0.949425"/>
<path d="M271.78 94.186C268.855 89.8442 261.945 83.4271 248.015 82.769" stroke="#30235B" stroke-width="0.949425"/>
<path d="M80.3817 372.028C81.6643 357.335 68.0855 353.798 59.7797 353.799C58.7811 353.799 57.9288 354.483 57.6393 355.438C57.166 357 58.3638 358.575 59.9912 358.698C67.3256 359.25 77.2155 362.37 75.3912 372.028C73.6208 381.4 65.4975 383.167 59.7464 382.769C58.1618 382.66 56.6766 383.84 56.6766 385.428C56.6766 386.611 57.5134 387.638 58.6903 387.762C66.4491 388.576 79.1255 386.417 80.3817 372.028Z" fill="url(#paint7_linear_1_518)"/>
<path d="M59.0796 348.623V401.502C59.0796 403.212 57.693 404.599 55.9826 404.599H14.2349C12.5245 404.599 11.1379 403.212 11.1379 401.502L11.138 348.623C11.138 346.912 12.5245 345.526 14.235 345.526H55.9826C57.693 345.526 59.0796 346.912 59.0796 348.623Z" fill="url(#paint8_linear_1_518)"/>
<path d="M332.578 305.467L342.169 285.801" stroke="#30235B" stroke-width="0.949425"/>
<path d="M252.429 363.812C249.241 374.572 251.101 386.728 252.429 391.461L261.294 390.204C259.446 376.103 260.524 367.386 261.294 364.791L252.429 363.812Z" fill="#30235B"/>
<rect x="248.917" y="359.203" width="16.7668" height="4.34698" rx="2.17349" transform="rotate(6.01694 248.917 359.203)" fill="url(#paint9_linear_1_518)"/>
<rect opacity="0.5" x="323.635" y="24.7048" width="73.8938" height="57.2037" rx="2.54344" stroke="#F0F0F0" stroke-width="1.89885"/>
<path d="M371.373 51.3068C372.913 52.1956 372.913 54.4177 371.373 55.3065L352.1 66.434C350.56 67.3229 348.636 66.2118 348.636 64.4341V42.1792C348.636 40.4015 350.56 39.2904 352.1 40.1793L371.373 51.3068Z" fill="#FF7979"/>
<rect opacity="0.5" x="338.473" y="32.0991" width="42.583" height="39.2283" fill="white"/>
<rect opacity="0.5" x="16.6064" y="24.5876" width="99.9827" height="77.5477" rx="3.7977" stroke="#F0F0F0" stroke-width="1.89885"/>
<path d="M77.9754 16.8134C79.1835 16.8134 80.3422 17.1677 81.1965 17.7983C82.0508 18.4289 82.5307 19.2843 82.5307 20.1761V30.2641C82.5307 31.156 82.0508 32.0113 81.1965 32.6419C80.3422 33.2725 79.1835 33.6268 77.9754 33.6268H55.1987C53.9906 33.6268 52.8319 33.2725 51.9776 32.6419C51.1233 32.0113 50.6434 31.156 50.6434 30.2641V20.1761C50.6434 19.2843 51.1233 18.4289 51.9776 17.7983C52.8319 17.1677 53.9906 16.8134 55.1987 16.8134V8.40671C55.1987 6.17711 56.3985 4.03883 58.5343 2.46227C60.67 0.885704 63.5667 0 66.587 0C69.6074 0 72.5041 0.885704 74.6398 2.46227C76.7755 4.03883 77.9754 6.17711 77.9754 8.40671V16.8134ZM66.587 28.5828C67.7952 28.5828 68.9539 28.2285 69.8081 27.5979C70.6624 26.9673 71.1424 26.112 71.1424 25.2201C71.1424 24.3283 70.6624 23.473 69.8081 22.8423C68.9539 22.2117 67.7952 21.8574 66.587 21.8574C65.3789 21.8574 64.2202 22.2117 63.3659 22.8423C62.5116 23.473 62.0317 24.3283 62.0317 25.2201C62.0317 26.112 62.5116 26.9673 63.3659 27.5979C64.2202 28.2285 65.3789 28.5828 66.587 28.5828ZM73.42 16.8134V8.40671C73.42 7.06895 72.7001 5.78598 71.4187 4.84004C70.1373 3.89411 68.3993 3.36268 66.587 3.36268C64.7748 3.36268 63.0368 3.89411 61.7554 4.84004C60.4739 5.78598 59.754 7.06895 59.754 8.40671V16.8134H73.42Z" fill="url(#paint10_linear_1_518)"/>
<rect opacity="0.5" x="36.5493" y="31.6807" width="60.7536" height="58.4305" fill="white"/>
<rect opacity="0.5" x="70.5715" y="158.425" width="68.0659" height="52.6592" rx="3.7977" stroke="#E2E2E2" stroke-width="1.89885"/>
<mask id="mask1_1_518" style="mask-type:alpha" maskUnits="userSpaceOnUse" x="88" y="168" width="33" height="33">
<rect x="88.4522" y="168.602" width="32.3045" height="32.3045"/>
</mask>
<g mask="url(#mask1_1_518)">
<rect x="80.6368" y="155.468" width="44.3269" height="54.6698" fill="#FF7979"/>
</g>
<rect opacity="0.5" x="85.6575" y="162.544" width="42.9317" height="45.3675" fill="white"/>
<rect opacity="0.5" x="437.758" y="90.6423" width="111.022" height="80.4669" rx="3.7977" stroke="#F7F7F7" stroke-width="1.89885"/>
<rect x="455.318" y="125.701" width="18.9885" height="26.5653" rx="2.58027" fill="#FF7979"/>
<rect x="483.774" y="109.486" width="18.9885" height="42.7804" rx="2.58027" fill="#9EFFAE"/>
<rect x="512.23" y="116.386" width="18.9885" height="35.8803" rx="2.58027" fill="#FFDEAD"/>
<rect opacity="0.5" x="443.521" y="103.085" width="96.4972" height="58.4137" fill="white"/>
<defs>
<linearGradient id="paint0_linear_1_518" x1="235.261" y1="190.092" x2="222.861" y2="438.429" gradientUnits="userSpaceOnUse">
<stop stop-color="#FF9F81"/>
<stop offset="1" stop-color="#F53838"/>
</linearGradient>
<linearGradient id="paint1_linear_1_518" x1="235.127" y1="122.873" x2="232.91" y2="233.173" gradientUnits="userSpaceOnUse">
<stop stop-color="#FFEFE0"/>
<stop offset="1" stop-color="#FFBE99"/>
</linearGradient>
<linearGradient id="paint2_linear_1_518" x1="236.808" y1="111.457" x2="236.808" y2="207.912" gradientUnits="userSpaceOnUse">
<stop stop-color="#FFEFE0"/>
<stop offset="1" stop-color="#FFBE99"/>
</linearGradient>
<linearGradient id="paint3_linear_1_518" x1="215.622" y1="312.164" x2="215.622" y2="396.03" gradientUnits="userSpaceOnUse">
<stop offset="0.0677966" stop-color="#FFEFE0"/>
<stop offset="1" stop-color="#FFBE99"/>
</linearGradient>
<linearGradient id="paint4_linear_1_518" x1="332.507" y1="189.075" x2="413.893" y2="284.322" gradientUnits="userSpaceOnUse">
<stop stop-color="#FFEFE0"/>
<stop offset="1" stop-color="#FFBE99"/>
</linearGradient>
<linearGradient id="paint5_linear_1_518" x1="435.21" y1="240.477" x2="389.565" y2="429.822" gradientUnits="userSpaceOnUse">
<stop offset="0.0171777" stop-color="white"/>
<stop offset="1" stop-color="#D7D7D7"/>
</linearGradient>
<linearGradient id="paint6_linear_1_518" x1="-22.6908" y1="344.917" x2="69.622" y2="228.162" gradientUnits="userSpaceOnUse">
<stop stop-color="#ECECEC"/>
<stop offset="1" stop-color="#F5F5F5" stop-opacity="0"/>
</linearGradient>
<linearGradient id="paint7_linear_1_518" x1="88.5126" y1="360.951" x2="56.6766" y2="361.65" gradientUnits="userSpaceOnUse">
<stop stop-color="white"/>
<stop offset="1" stop-color="#CCCCCC"/>
</linearGradient>
<linearGradient id="paint8_linear_1_518" x1="35.1088" y1="327.693" x2="35.1088" y2="422.917" gradientUnits="userSpaceOnUse">
<stop stop-color="white"/>
<stop offset="1" stop-color="#CCCCCC"/>
</linearGradient>
<linearGradient id="paint9_linear_1_518" x1="256.982" y1="358.353" x2="256.87" y2="363.621" gradientUnits="userSpaceOnUse">
<stop stop-color="#7F67CE"/>
<stop offset="1" stop-color="#30235B"/>
</linearGradient>
<linearGradient id="paint10_linear_1_518" x1="66.587" y1="0" x2="66.587" y2="33.6268" gradientUnits="userSpaceOnUse">
<stop stop-color="#FFD5B7"/>
<stop offset="1" stop-color="#FFAB6D"/>
</linearGradient>
</defs>
</svg>
